<?xml version="1.0" encoding="UTF-8"?>
<svg xmlns="http://www.w3.org/2000/svg" viewBox="0 0 512 512" width="512" height="512">
  <defs>
    <radialGradient id="bg_84" cx="50%" cy="45%" r="50%">
      <stop offset="0%" stop-color="#87CEEB" stop-opacity="0.3"/>
      <stop offset="100%" stop-color="#f3e8ff"/>
    </radialGradient>
    <radialGradient id="body_84" cx="40%" cy="30%">
      <stop offset="0%" stop-color="#87CEEB"/>
      <stop offset="100%" stop-color="#FFB6C1"/>
    </radialGradient>
    <filter id="shadow_84">
      <feDropShadow dx="0" dy="4" stdDeviation="6" flood-opacity="0.15"/>
    </filter>
  </defs>

  <!-- 背景円 -->
  <circle cx="256" cy="256" r="240" fill="url(#bg_84)"/>
  <circle cx="256" cy="256" r="240" fill="none" stroke="#9370DB" stroke-width="4" opacity="0.4"/>

  <!-- キャラクター本体 -->
  <g filter="url(#shadow_84)">
    
        <ellipse cx="256" cy="310" rx="130" ry="120" fill="url(#body_84)"/>
    
        <circle cx="256" cy="200" r="110" fill="url(#body_84)"/>
    
        <ellipse cx="256" cy="330" rx="85" ry="80" fill="#FFFAF0" opacity="0.85"/>
    <ellipse cx="150" cy="300" rx="50" ry="80" fill="#FFB6C1" opacity="0.7"/><ellipse cx="362" cy="300" rx="50" ry="80" fill="#FFB6C1" opacity="0.7"/>
        <ellipse cx="200" cy="420" rx="40" ry="22" fill="url(#body_84)"/>
        <ellipse cx="312" cy="420" rx="40" ry="22" fill="url(#body_84)"/>
    
            <circle cx="210" cy="210" r="35" fill="white"/>
            <circle cx="302" cy="210" r="35" fill="white"/>
            <circle cx="210" cy="215" r="18" fill="#333"/>
            <circle cx="302" cy="215" r="18" fill="#333"/>
            <circle cx="205" cy="208" rx="6" ry="7" fill="white"/>
            <circle cx="297" cy="208" rx="6" ry="7" fill="white"/>
        <polygon points="256,245 245,265 267,265" fill="#FF8C00"/><text x="340" y="150" font-size="28">🎵</text><text x="370" y="120" font-size="20">🎵</text>
    
        <ellipse cx="180" cy="220" rx="22" ry="26" fill="#333"/>
        <ellipse cx="180" cy="216" rx="14" ry="16" fill="#555"/>
        <ellipse cx="174" cy="210" rx="7" ry="8" fill="white"/>
        <ellipse cx="186" cy="218" rx="3" ry="4" fill="white" opacity="0.6"/>
        <ellipse cx="332" cy="220" rx="22" ry="26" fill="#333"/>
        <ellipse cx="332" cy="216" rx="14" ry="16" fill="#555"/>
        <ellipse cx="326" cy="210" rx="7" ry="8" fill="white"/>
        <ellipse cx="338" cy="218" rx="3" ry="4" fill="white" opacity="0.6"/>
    
    
        <ellipse cx="150" cy="260" rx="25" ry="16" fill="#FF9999" opacity="0.5"/>
        <ellipse cx="362" cy="260" rx="25" ry="16" fill="#FF9999" opacity="0.5"/>
    
    
        <ellipse cx="256" cy="255" rx="8" ry="6" fill="#333"/>
    
    
        <path d="M235 270 Q256 295 277 270" fill="none" stroke="#333" stroke-width="3" stroke-linecap="round"/>
    
  </g>

  
            <text x="60" y="70" font-size="36" opacity="0.7">✨</text>
            <text x="410" y="90" font-size="30" opacity="0.6">⭐</text>
            <text x="80" y="440" font-size="28" opacity="0.5">💫</text>
            <text x="400" y="420" font-size="32" opacity="0.6">✨</text>
        
</svg>