<?xml version="1.0" encoding="UTF-8"?>
<svg xmlns="http://www.w3.org/2000/svg" viewBox="0 0 512 512" width="512" height="512">
  <defs>
    <radialGradient id="bg_31" cx="50%" cy="45%" r="50%">
      <stop offset="0%" stop-color="#FF8C00" stop-opacity="0.3"/>
      <stop offset="100%" stop-color="#e8f0fe"/>
    </radialGradient>
    <radialGradient id="body_31" cx="40%" cy="30%">
      <stop offset="0%" stop-color="#FF8C00"/>
      <stop offset="100%" stop-color="#FF4500"/>
    </radialGradient>
    <filter id="shadow_31">
      <feDropShadow dx="0" dy="4" stdDeviation="6" flood-opacity="0.15"/>
    </filter>
  </defs>

  <!-- 背景円 -->
  <circle cx="256" cy="256" r="240" fill="url(#bg_31)"/>
  <circle cx="256" cy="256" r="240" fill="none" stroke="#6495ED" stroke-width="4" opacity="0.4"/>

  <!-- キャラクター本体 -->
  <g filter="url(#shadow_31)">
    
        <ellipse cx="256" cy="310" rx="130" ry="120" fill="url(#body_31)"/>
    
        <circle cx="256" cy="200" r="110" fill="url(#body_31)"/>
    
        <ellipse cx="256" cy="330" rx="85" ry="80" fill="#FFFAF0" opacity="0.85"/>
    
        <ellipse cx="145" cy="330" rx="30" ry="45" fill="url(#body_31)" transform="rotate(-15,145,330)"/>
        <ellipse cx="367" cy="330" rx="30" ry="45" fill="url(#body_31)" transform="rotate(15,367,330)"/>
    
        <ellipse cx="200" cy="420" rx="40" ry="22" fill="url(#body_31)"/>
        <ellipse cx="312" cy="420" rx="40" ry="22" fill="url(#body_31)"/>
    
            <polygon points="180,140 155,50 220,110" fill="url(#body_31)"/>
            <polygon points="332,140 357,50 292,110" fill="url(#body_31)"/>
            <polygon points="185,135 165,65 215,112" fill="white" opacity="0.6"/>
            <polygon points="327,135 347,65 297,112" fill="white" opacity="0.6"/>
        <path d="M370 360 Q430 320 450 260 Q455 230 430 220" fill="url(#body_31)" stroke="#FF4500" stroke-width="2"/><ellipse cx="256" cy="260" rx="40" ry="30" fill="white" opacity="0.8"/>
    
        <ellipse cx="180" cy="220" rx="22" ry="26" fill="#333"/>
        <ellipse cx="180" cy="216" rx="14" ry="16" fill="#555"/>
        <ellipse cx="174" cy="210" rx="7" ry="8" fill="white"/>
        <ellipse cx="186" cy="218" rx="3" ry="4" fill="white" opacity="0.6"/>
        <ellipse cx="332" cy="220" rx="22" ry="26" fill="#333"/>
        <ellipse cx="332" cy="216" rx="14" ry="16" fill="#555"/>
        <ellipse cx="326" cy="210" rx="7" ry="8" fill="white"/>
        <ellipse cx="338" cy="218" rx="3" ry="4" fill="white" opacity="0.6"/>
    
    
        <ellipse cx="150" cy="260" rx="25" ry="16" fill="#FF9999" opacity="0.5"/>
        <ellipse cx="362" cy="260" rx="25" ry="16" fill="#FF9999" opacity="0.5"/>
    
    
        <ellipse cx="256" cy="255" rx="8" ry="6" fill="#333"/>
    
    
        <path d="M235 270 Q256 295 277 270" fill="none" stroke="#333" stroke-width="3" stroke-linecap="round"/>
    
  </g>

  
            <text x="80" y="80" font-size="30" opacity="0.6">⭐</text>
            <text x="400" y="100" font-size="24" opacity="0.5">✨</text>
        
</svg>