<?xml version="1.0" encoding="UTF-8"?>
<svg xmlns="http://www.w3.org/2000/svg" viewBox="0 0 512 512" width="512" height="512">
  <defs>
    <radialGradient id="bg_90" cx="50%" cy="45%" r="50%">
      <stop offset="0%" stop-color="#FFD700" stop-opacity="0.3"/>
      <stop offset="100%" stop-color="#f3e8ff"/>
    </radialGradient>
    <radialGradient id="body_90" cx="40%" cy="30%">
      <stop offset="0%" stop-color="#FFD700"/>
      <stop offset="100%" stop-color="#FF0000"/>
    </radialGradient>
    <filter id="shadow_90">
      <feDropShadow dx="0" dy="4" stdDeviation="6" flood-opacity="0.15"/>
    </filter>
  </defs>

  <!-- 背景円 -->
  <circle cx="256" cy="256" r="240" fill="url(#bg_90)"/>
  <circle cx="256" cy="256" r="240" fill="none" stroke="#9370DB" stroke-width="4" opacity="0.4"/>

  <!-- キャラクター本体 -->
  <g filter="url(#shadow_90)">
    
        <ellipse cx="256" cy="310" rx="130" ry="120" fill="url(#body_90)"/>
    
        <circle cx="256" cy="200" r="110" fill="url(#body_90)"/>
    
        <ellipse cx="256" cy="330" rx="85" ry="80" fill="#FFFAF0" opacity="0.85"/>
    
        <ellipse cx="145" cy="330" rx="30" ry="45" fill="url(#body_90)" transform="rotate(-15,145,330)"/>
        <ellipse cx="367" cy="330" rx="30" ry="45" fill="url(#body_90)" transform="rotate(15,367,330)"/>
    
        <ellipse cx="200" cy="420" rx="40" ry="22" fill="url(#body_90)"/>
        <ellipse cx="312" cy="420" rx="40" ry="22" fill="url(#body_90)"/>
    
            <path d="M130 260 Q60 180 80 80 Q100 140 130 170 Q110 110 130 60 Q150 120 170 190" fill="#FFD700" opacity="0.8"/>
            <path d="M382 260 Q452 180 432 80 Q412 140 382 170 Q402 110 382 60 Q362 120 342 190" fill="#FFD700" opacity="0.8"/>
        
            <path d="M256 430 Q200 480 180 470 Q220 450 256 430" fill="#FFD700" opacity="0.7"/>
            <path d="M256 430 Q256 490 256 480 Q256 460 256 430" fill="#FF0000" opacity="0.7"/>
            <path d="M256 430 Q312 480 332 470 Q292 450 256 430" fill="#FFD700" opacity="0.7"/>
        
            <path d="M230 130 Q220 60 240 80" fill="#FFD700" opacity="0.8"/>
            <path d="M256 120 Q256 40 260 60" fill="#FF0000" opacity="0.8"/>
            <path d="M282 130 Q292 60 272 80" fill="#FFD700" opacity="0.8"/>
        <text x="100" y="80" font-size="36">🔥</text><text x="370" y="80" font-size="36">🔥</text><circle cx="256" cy="256" r="220" fill="none" stroke="#FF0000" stroke-width="3" stroke-dasharray="10,8" opacity="0.4"/>
    
        <ellipse cx="180" cy="220" rx="22" ry="26" fill="#333"/>
        <ellipse cx="180" cy="216" rx="14" ry="16" fill="#555"/>
        <ellipse cx="174" cy="210" rx="7" ry="8" fill="white"/>
        <ellipse cx="186" cy="218" rx="3" ry="4" fill="white" opacity="0.6"/>
        <ellipse cx="332" cy="220" rx="22" ry="26" fill="#333"/>
        <ellipse cx="332" cy="216" rx="14" ry="16" fill="#555"/>
        <ellipse cx="326" cy="210" rx="7" ry="8" fill="white"/>
        <ellipse cx="338" cy="218" rx="3" ry="4" fill="white" opacity="0.6"/>
    
    
        <ellipse cx="150" cy="260" rx="25" ry="16" fill="#FF9999" opacity="0.5"/>
        <ellipse cx="362" cy="260" rx="25" ry="16" fill="#FF9999" opacity="0.5"/>
    
    
        <ellipse cx="256" cy="255" rx="8" ry="6" fill="#333"/>
    
    
        <path d="M235 270 Q256 295 277 270" fill="none" stroke="#333" stroke-width="3" stroke-linecap="round"/>
    
  </g>

  
            <text x="60" y="70" font-size="36" opacity="0.7">✨</text>
            <text x="410" y="90" font-size="30" opacity="0.6">⭐</text>
            <text x="80" y="440" font-size="28" opacity="0.5">💫</text>
            <text x="400" y="420" font-size="32" opacity="0.6">✨</text>
        
</svg>