<?xml version="1.0" encoding="UTF-8"?>
<svg xmlns="http://www.w3.org/2000/svg" viewBox="0 0 512 512" width="512" height="512">
  <defs>
    <radialGradient id="bg_80" cx="50%" cy="45%" r="50%">
      <stop offset="0%" stop-color="#3CB371" stop-opacity="0.3"/>
      <stop offset="100%" stop-color="#f3e8ff"/>
    </radialGradient>
    <radialGradient id="body_80" cx="40%" cy="30%">
      <stop offset="0%" stop-color="#3CB371"/>
      <stop offset="100%" stop-color="#008080"/>
    </radialGradient>
    <filter id="shadow_80">
      <feDropShadow dx="0" dy="4" stdDeviation="6" flood-opacity="0.15"/>
    </filter>
  </defs>

  <!-- 背景円 -->
  <circle cx="256" cy="256" r="240" fill="url(#bg_80)"/>
  <circle cx="256" cy="256" r="240" fill="none" stroke="#9370DB" stroke-width="4" opacity="0.4"/>

  <!-- キャラクター本体 -->
  <g filter="url(#shadow_80)">
    
        <ellipse cx="256" cy="310" rx="130" ry="120" fill="url(#body_80)"/>
    
        <circle cx="256" cy="200" r="110" fill="url(#body_80)"/>
    
        <ellipse cx="256" cy="330" rx="85" ry="80" fill="#FFFAF0" opacity="0.85"/>
    
            <path d="M130 250 Q70 200 80 130 Q100 180 130 200 Q110 160 120 110 Q140 170 170 220" fill="url(#body_80)" opacity="0.8"/>
            <path d="M382 250 Q442 200 432 130 Q412 180 382 200 Q402 160 392 110 Q372 170 342 220" fill="url(#body_80)" opacity="0.8"/>
        
        <ellipse cx="200" cy="420" rx="40" ry="22" fill="url(#body_80)"/>
        <ellipse cx="312" cy="420" rx="40" ry="22" fill="url(#body_80)"/>
    <polygon points="256,245 235,265 277,265" fill="#FF8C00"/>
            <circle cx="215" cy="215" r="22" fill="white"/>
            <circle cx="297" cy="215" r="22" fill="white"/>
            <circle cx="215" cy="218" r="12" fill="#333"/>
            <circle cx="297" cy="218" r="12" fill="#333"/>
            <circle cx="211" cy="213" r="4" fill="white"/>
            <circle cx="293" cy="213" r="4" fill="white"/>
        <text x="350" y="130" font-size="30">🌪️</text>
    
        <ellipse cx="180" cy="220" rx="22" ry="26" fill="#333"/>
        <ellipse cx="180" cy="216" rx="14" ry="16" fill="#555"/>
        <ellipse cx="174" cy="210" rx="7" ry="8" fill="white"/>
        <ellipse cx="186" cy="218" rx="3" ry="4" fill="white" opacity="0.6"/>
        <ellipse cx="332" cy="220" rx="22" ry="26" fill="#333"/>
        <ellipse cx="332" cy="216" rx="14" ry="16" fill="#555"/>
        <ellipse cx="326" cy="210" rx="7" ry="8" fill="white"/>
        <ellipse cx="338" cy="218" rx="3" ry="4" fill="white" opacity="0.6"/>
    
    
        <ellipse cx="150" cy="260" rx="25" ry="16" fill="#FF9999" opacity="0.5"/>
        <ellipse cx="362" cy="260" rx="25" ry="16" fill="#FF9999" opacity="0.5"/>
    
    
        <ellipse cx="256" cy="255" rx="8" ry="6" fill="#333"/>
    
    
        <path d="M235 270 Q256 295 277 270" fill="none" stroke="#333" stroke-width="3" stroke-linecap="round"/>
    
  </g>

  
            <text x="60" y="70" font-size="36" opacity="0.7">✨</text>
            <text x="410" y="90" font-size="30" opacity="0.6">⭐</text>
            <text x="80" y="440" font-size="28" opacity="0.5">💫</text>
            <text x="400" y="420" font-size="32" opacity="0.6">✨</text>
        
</svg>