<?xml version="1.0" encoding="UTF-8"?>
<svg xmlns="http://www.w3.org/2000/svg" viewBox="0 0 512 512" width="512" height="512">
  <defs>
    <radialGradient id="bg_62" cx="50%" cy="45%" r="50%">
      <stop offset="0%" stop-color="#FF4500" stop-opacity="0.3"/>
      <stop offset="100%" stop-color="#f3e8ff"/>
    </radialGradient>
    <radialGradient id="body_62" cx="40%" cy="30%">
      <stop offset="0%" stop-color="#FF4500"/>
      <stop offset="100%" stop-color="#8B0000"/>
    </radialGradient>
    <filter id="shadow_62">
      <feDropShadow dx="0" dy="4" stdDeviation="6" flood-opacity="0.15"/>
    </filter>
  </defs>

  <!-- 背景円 -->
  <circle cx="256" cy="256" r="240" fill="url(#bg_62)"/>
  <circle cx="256" cy="256" r="240" fill="none" stroke="#9370DB" stroke-width="4" opacity="0.4"/>

  <!-- キャラクター本体 -->
  <g filter="url(#shadow_62)">
    
        <ellipse cx="256" cy="310" rx="130" ry="120" fill="url(#body_62)"/>
    
        <circle cx="256" cy="200" r="110" fill="url(#body_62)"/>
    
        <ellipse cx="256" cy="330" rx="85" ry="80" fill="#FFFAF0" opacity="0.85"/>
    
        <ellipse cx="145" cy="330" rx="30" ry="45" fill="url(#body_62)" transform="rotate(-15,145,330)"/>
        <ellipse cx="367" cy="330" rx="30" ry="45" fill="url(#body_62)" transform="rotate(15,367,330)"/>
    
        <ellipse cx="200" cy="420" rx="40" ry="22" fill="url(#body_62)"/>
        <ellipse cx="312" cy="420" rx="40" ry="22" fill="url(#body_62)"/>
    
            <polygon points="195,130 170,50 220,110" fill="#8B0000"/>
            <polygon points="317,130 342,50 292,110" fill="#8B0000"/>
        
            <path d="M130 250 Q80 180 100 120 Q110 150 130 170 Q120 140 135 100 Q145 140 160 180" fill="#FF4500" opacity="0.6"/>
            <path d="M382 250 Q432 180 412 120 Q402 150 382 170 Q392 140 377 100 Q367 140 352 180" fill="#FF4500" opacity="0.6"/>
        <path d="M375 380 Q420 370 440 340 Q460 310 450 290" fill="none" stroke="url(#body_62)" stroke-width="14" stroke-linecap="round"/><polygon points="440,290 455,275 445,300" fill="#FF4500"/>
    
        <ellipse cx="180" cy="220" rx="22" ry="26" fill="#333"/>
        <ellipse cx="180" cy="216" rx="14" ry="16" fill="#555"/>
        <ellipse cx="174" cy="210" rx="7" ry="8" fill="white"/>
        <ellipse cx="186" cy="218" rx="3" ry="4" fill="white" opacity="0.6"/>
        <ellipse cx="332" cy="220" rx="22" ry="26" fill="#333"/>
        <ellipse cx="332" cy="216" rx="14" ry="16" fill="#555"/>
        <ellipse cx="326" cy="210" rx="7" ry="8" fill="white"/>
        <ellipse cx="338" cy="218" rx="3" ry="4" fill="white" opacity="0.6"/>
    
    
        <ellipse cx="150" cy="260" rx="25" ry="16" fill="#FF9999" opacity="0.5"/>
        <ellipse cx="362" cy="260" rx="25" ry="16" fill="#FF9999" opacity="0.5"/>
    
    
        <ellipse cx="256" cy="255" rx="8" ry="6" fill="#333"/>
    
    
        <path d="M235 270 Q256 295 277 270" fill="none" stroke="#333" stroke-width="3" stroke-linecap="round"/>
    
  </g>

  
            <text x="60" y="70" font-size="36" opacity="0.7">✨</text>
            <text x="410" y="90" font-size="30" opacity="0.6">⭐</text>
            <text x="80" y="440" font-size="28" opacity="0.5">💫</text>
            <text x="400" y="420" font-size="32" opacity="0.6">✨</text>
        
</svg>