<?xml version="1.0" encoding="UTF-8"?>
<svg xmlns="http://www.w3.org/2000/svg" viewBox="0 0 512 512" width="512" height="512">
  <defs>
    <radialGradient id="bg_78" cx="50%" cy="45%" r="50%">
      <stop offset="0%" stop-color="#FFD700" stop-opacity="0.3"/>
      <stop offset="100%" stop-color="#f3e8ff"/>
    </radialGradient>
    <radialGradient id="body_78" cx="40%" cy="30%">
      <stop offset="0%" stop-color="#FFD700"/>
      <stop offset="100%" stop-color="#FF4500"/>
    </radialGradient>
    <filter id="shadow_78">
      <feDropShadow dx="0" dy="4" stdDeviation="6" flood-opacity="0.15"/>
    </filter>
  </defs>

  <!-- 背景円 -->
  <circle cx="256" cy="256" r="240" fill="url(#bg_78)"/>
  <circle cx="256" cy="256" r="240" fill="none" stroke="#9370DB" stroke-width="4" opacity="0.4"/>

  <!-- キャラクター本体 -->
  <g filter="url(#shadow_78)">
    <circle cx="256" cy="200" r="130" fill="#FFD700" opacity="0.6"/><line x1="376" y1="200" x2="406" y2="200" stroke="#FFD700" stroke-width="8" stroke-linecap="round" opacity="0.6"/><line x1="360" y1="260" x2="386" y2="275" stroke="#FFD700" stroke-width="8" stroke-linecap="round" opacity="0.6"/><line x1="316" y1="304" x2="331" y2="330" stroke="#FFD700" stroke-width="8" stroke-linecap="round" opacity="0.6"/><line x1="256" y1="320" x2="256" y2="350" stroke="#FFD700" stroke-width="8" stroke-linecap="round" opacity="0.6"/><line x1="196" y1="304" x2="181" y2="330" stroke="#FFD700" stroke-width="8" stroke-linecap="round" opacity="0.6"/><line x1="152" y1="260" x2="126" y2="275" stroke="#FFD700" stroke-width="8" stroke-linecap="round" opacity="0.6"/><line x1="136" y1="200" x2="106" y2="200" stroke="#FFD700" stroke-width="8" stroke-linecap="round" opacity="0.6"/><line x1="152" y1="140" x2="126" y2="125" stroke="#FFD700" stroke-width="8" stroke-linecap="round" opacity="0.6"/><line x1="196" y1="96" x2="181" y2="70" stroke="#FFD700" stroke-width="8" stroke-linecap="round" opacity="0.6"/><line x1="256" y1="80" x2="256" y2="50" stroke="#FFD700" stroke-width="8" stroke-linecap="round" opacity="0.6"/><line x1="316" y1="96" x2="331" y2="70" stroke="#FFD700" stroke-width="8" stroke-linecap="round" opacity="0.6"/><line x1="360" y1="140" x2="386" y2="125" stroke="#FFD700" stroke-width="8" stroke-linecap="round" opacity="0.6"/>
        <ellipse cx="256" cy="310" rx="130" ry="120" fill="url(#body_78)"/>
    
        <circle cx="256" cy="200" r="110" fill="url(#body_78)"/>
    
        <ellipse cx="256" cy="330" rx="85" ry="80" fill="#FFFAF0" opacity="0.85"/>
    
        <ellipse cx="145" cy="330" rx="30" ry="45" fill="url(#body_78)" transform="rotate(-15,145,330)"/>
        <ellipse cx="367" cy="330" rx="30" ry="45" fill="url(#body_78)" transform="rotate(15,367,330)"/>
    
        <ellipse cx="200" cy="420" rx="40" ry="22" fill="url(#body_78)"/>
        <ellipse cx="312" cy="420" rx="40" ry="22" fill="url(#body_78)"/>
    
            <circle cx="175" cy="130" r="30" fill="url(#body_78)"/>
            <circle cx="337" cy="130" r="30" fill="url(#body_78)"/>
        
    
        <ellipse cx="180" cy="220" rx="22" ry="26" fill="#333"/>
        <ellipse cx="180" cy="216" rx="14" ry="16" fill="#555"/>
        <ellipse cx="174" cy="210" rx="7" ry="8" fill="white"/>
        <ellipse cx="186" cy="218" rx="3" ry="4" fill="white" opacity="0.6"/>
        <ellipse cx="332" cy="220" rx="22" ry="26" fill="#333"/>
        <ellipse cx="332" cy="216" rx="14" ry="16" fill="#555"/>
        <ellipse cx="326" cy="210" rx="7" ry="8" fill="white"/>
        <ellipse cx="338" cy="218" rx="3" ry="4" fill="white" opacity="0.6"/>
    
    
        <ellipse cx="150" cy="260" rx="25" ry="16" fill="#FF9999" opacity="0.5"/>
        <ellipse cx="362" cy="260" rx="25" ry="16" fill="#FF9999" opacity="0.5"/>
    
    
        <ellipse cx="256" cy="255" rx="8" ry="6" fill="#333"/>
    
    
        <path d="M235 270 Q256 295 277 270" fill="none" stroke="#333" stroke-width="3" stroke-linecap="round"/>
    
  </g>

  
            <text x="60" y="70" font-size="36" opacity="0.7">✨</text>
            <text x="410" y="90" font-size="30" opacity="0.6">⭐</text>
            <text x="80" y="440" font-size="28" opacity="0.5">💫</text>
            <text x="400" y="420" font-size="32" opacity="0.6">✨</text>
        
</svg>