<?xml version="1.0" encoding="UTF-8"?>
<svg xmlns="http://www.w3.org/2000/svg" viewBox="0 0 512 512" width="512" height="512">
  <defs>
    <radialGradient id="bg_35" cx="50%" cy="45%" r="50%">
      <stop offset="0%" stop-color="#00BFFF" stop-opacity="0.3"/>
      <stop offset="100%" stop-color="#e8f0fe"/>
    </radialGradient>
    <radialGradient id="body_35" cx="40%" cy="30%">
      <stop offset="0%" stop-color="#00BFFF"/>
      <stop offset="100%" stop-color="#1E90FF"/>
    </radialGradient>
    <filter id="shadow_35">
      <feDropShadow dx="0" dy="4" stdDeviation="6" flood-opacity="0.15"/>
    </filter>
  </defs>

  <!-- 背景円 -->
  <circle cx="256" cy="256" r="240" fill="url(#bg_35)"/>
  <circle cx="256" cy="256" r="240" fill="none" stroke="#6495ED" stroke-width="4" opacity="0.4"/>

  <!-- キャラクター本体 -->
  <g filter="url(#shadow_35)">
    
            <ellipse cx="256" cy="280" rx="120" ry="80" fill="url(#body_35)"/>
            <ellipse cx="256" cy="290" rx="80" ry="55" fill="white" opacity="0.7"/>
        <circle cx="220" cy="240" r="70" fill="url(#body_35)"/><ellipse cx="170" cy="260" rx="55" ry="25" fill="url(#body_35)"/><polygon points="256,210 230,160 280,160" fill="url(#body_35)"/><polygon points="380,280 430,250 430,310" fill="url(#body_35)"/>
            <ellipse cx="200" cy="235" rx="12" ry="14" fill="#333"/>
            <ellipse cx="196" cy="230" rx="5" ry="6" fill="white"/>
        <ellipse cx="185" cy="255" rx="15" ry="10" fill="#FF9999" opacity="0.4"/><path d="M165 260 Q175 270 190 262" fill="none" stroke="#333" stroke-width="2" stroke-linecap="round"/>
    
        <ellipse cx="180" cy="220" rx="22" ry="26" fill="#333"/>
        <ellipse cx="180" cy="216" rx="14" ry="16" fill="#555"/>
        <ellipse cx="174" cy="210" rx="7" ry="8" fill="white"/>
        <ellipse cx="186" cy="218" rx="3" ry="4" fill="white" opacity="0.6"/>
        <ellipse cx="332" cy="220" rx="22" ry="26" fill="#333"/>
        <ellipse cx="332" cy="216" rx="14" ry="16" fill="#555"/>
        <ellipse cx="326" cy="210" rx="7" ry="8" fill="white"/>
        <ellipse cx="338" cy="218" rx="3" ry="4" fill="white" opacity="0.6"/>
    
    
        <ellipse cx="150" cy="260" rx="25" ry="16" fill="#FF9999" opacity="0.5"/>
        <ellipse cx="362" cy="260" rx="25" ry="16" fill="#FF9999" opacity="0.5"/>
    
    
        <ellipse cx="256" cy="255" rx="8" ry="6" fill="#333"/>
    
    
        <path d="M235 270 Q256 295 277 270" fill="none" stroke="#333" stroke-width="3" stroke-linecap="round"/>
    
  </g>

  
            <text x="80" y="80" font-size="30" opacity="0.6">⭐</text>
            <text x="400" y="100" font-size="24" opacity="0.5">✨</text>
        
</svg>